<svg width="32" height="32" viewBox="0 0 32 32" fill="none" xmlns="http://www.w3.org/2000/svg">
<path d="M15.9993 9.9987C16.3674 9.9987 16.6659 10.2972 16.666 10.6654V14.6667C16.666 14.9809 16.666 15.1381 16.7636 15.2357C16.8612 15.3333 17.0184 15.3333 17.3326 15.3333H21.3333C21.7015 15.3333 22 15.6318 22 16C22 16.3682 21.7015 16.6667 21.3333 16.6667H17.3326C17.0184 16.6667 16.8612 16.6667 16.7636 16.7643C16.666 16.8619 16.666 17.0191 16.666 17.3333V21.3333C16.666 21.7015 16.3675 22 15.9993 22C15.6312 22 15.3326 21.7015 15.3326 21.3333V17.3333C15.3326 17.0191 15.3326 16.8619 15.235 16.7643C15.1374 16.6667 14.9802 16.6667 14.666 16.6667H10.6653C10.2972 16.6666 9.99866 16.3681 9.99866 16C9.99866 15.6319 10.2972 15.3334 10.6653 15.3333H14.666C14.9802 15.3333 15.1374 15.3333 15.235 15.2357C15.3326 15.1381 15.3326 14.9809 15.3326 14.6667V10.6654C15.3327 10.2973 15.6312 9.99874 15.9993 9.9987Z" fill="#7B618F"/>
</svg>
