<svg width="16" height="16" viewBox="0 0 16 16" fill="none" xmlns="http://www.w3.org/2000/svg">
<path d="M10.8619 5.92526C11.1223 5.66491 11.5443 5.66491 11.8046 5.92526C12.065 6.18561 12.065 6.60762 11.8046 6.86797L8.94266 9.72995C8.84492 9.82769 8.72534 9.9495 8.60867 10.0385C8.47656 10.1393 8.27336 10.2586 7.99995 10.2586C7.72654 10.2586 7.52334 10.1393 7.39123 10.0385C7.27455 9.9495 7.15498 9.82769 7.05724 9.72995L4.19526 6.86797C3.93491 6.60762 3.93491 6.18561 4.19526 5.92526C4.45561 5.66491 4.87762 5.66491 5.13797 5.92526L7.52854 8.31583C7.75077 8.53805 7.86188 8.64917 7.99995 8.64917C8.13802 8.64917 8.24913 8.53805 8.47135 8.31583L10.8619 5.92526Z" fill="#7B618F"/>
</svg>
