<svg width="134" height="18" viewBox="0 0 134 18" fill="none" xmlns="http://www.w3.org/2000/svg">
<path d="M10.9861 7.57715C11.0641 7.49909 11.1902 7.4992 11.2683 7.57715L12.5417 8.84961C12.6198 8.92771 12.6198 9.05471 12.5417 9.13281L11.2683 10.4053C11.1902 10.4832 11.0641 10.4833 10.9861 10.4053C10.908 10.3272 10.9081 10.2012 10.9861 10.123L11.9167 9.1914H0.88353L1.81419 10.123C1.89214 10.2012 1.89225 10.3272 1.81419 10.4053C1.73614 10.4833 1.61008 10.4832 1.53197 10.4053L0.25853 9.13281C0.180425 9.05471 0.180425 8.92771 0.25853 8.84961L1.53197 7.57715C1.61008 7.4992 1.73614 7.49909 1.81419 7.57715C1.89225 7.6552 1.89214 7.78126 1.81419 7.85937L0.88353 8.79101H11.9167L10.9861 7.85937C10.9081 7.78126 10.908 7.6552 10.9861 7.57715Z" fill="white"/>
<path d="M10.9861 7.57715L11.1275 7.71857L11.1275 7.71857L10.9861 7.57715ZM11.2683 7.57715L11.4097 7.43567L11.4096 7.43557L11.2683 7.57715ZM12.5417 8.84961L12.6832 8.70819L12.6831 8.70813L12.5417 8.84961ZM12.5417 9.13281L12.6831 9.27429L12.6832 9.27423L12.5417 9.13281ZM11.2683 10.4053L11.4096 10.5468L11.4097 10.5467L11.2683 10.4053ZM10.9861 10.4053L11.1275 10.2639L11.1275 10.2638L10.9861 10.4053ZM10.9861 10.123L10.8446 9.9817L10.8445 9.98178L10.9861 10.123ZM11.9167 9.1914L12.0582 9.33275L12.3992 8.9914H11.9167V9.1914ZM0.88353 9.1914V8.9914H0.401045L0.742034 9.33275L0.88353 9.1914ZM1.81419 10.123L1.95577 9.98178L1.95569 9.9817L1.81419 10.123ZM1.53197 10.4053L1.3906 10.5467L1.3907 10.5468L1.53197 10.4053ZM0.25853 9.13281L0.117108 9.27423L0.117163 9.27429L0.25853 9.13281ZM0.25853 8.84961L0.117163 8.70813L0.117108 8.70819L0.25853 8.84961ZM1.53197 7.57715L1.3907 7.43557L1.3906 7.43567L1.53197 7.57715ZM1.81419 7.85937L1.95569 8.00072L1.95577 8.00064L1.81419 7.85937ZM0.88353 8.79101L0.742034 8.64967L0.401045 8.99101H0.88353V8.79101ZM11.9167 8.79101V8.99101H12.3992L12.0582 8.64967L11.9167 8.79101ZM10.9861 7.85937L10.8445 8.00064L10.8446 8.00072L10.9861 7.85937ZM10.9861 7.57715L11.1275 7.71857L11.127 7.71872L11.2683 7.57715L11.4096 7.43557C11.2535 7.27988 11.001 7.27941 10.8446 7.43573L10.9861 7.57715ZM11.2683 7.57715L11.1269 7.71862L12.4004 8.99108L12.5417 8.84961L12.6831 8.70813L11.4097 7.43567L11.2683 7.57715ZM12.5417 8.84961L12.4003 8.99103V8.99139L12.5417 9.13281L12.6832 9.27423C12.8394 9.11802 12.8394 8.8644 12.6832 8.70819L12.5417 8.84961ZM12.5417 9.13281L12.4004 8.99133L11.1269 10.2638L11.2683 10.4053L11.4097 10.5467L12.6831 9.27429L12.5417 9.13281ZM11.2683 10.4053L11.127 10.2637L11.1275 10.2639L10.9861 10.4053L10.8446 10.5467C11.001 10.703 11.2535 10.7025 11.4096 10.5468L11.2683 10.4053ZM10.9861 10.4053L11.1275 10.2638L11.1276 10.2643L10.9861 10.123L10.8445 9.98178C10.6888 10.1378 10.6883 10.3904 10.8446 10.5467L10.9861 10.4053ZM10.9861 10.123L11.1276 10.2644L12.0582 9.33275L11.9167 9.1914L11.7752 9.05006L10.8446 9.9817L10.9861 10.123ZM11.9167 9.1914V8.9914H0.88353V9.1914V9.3914H11.9167V9.1914ZM0.88353 9.1914L0.742034 9.33275L1.6727 10.2644L1.81419 10.123L1.95569 9.9817L1.02503 9.05006L0.88353 9.1914ZM1.81419 10.123L1.67262 10.2643L1.67277 10.2638L1.81419 10.4053L1.95562 10.5467C2.11193 10.3904 2.11146 10.1378 1.95577 9.98178L1.81419 10.123ZM1.81419 10.4053L1.67277 10.2638L1.67323 10.2637L1.53197 10.4053L1.3907 10.5468C1.54673 10.7025 1.7993 10.703 1.95562 10.5467L1.81419 10.4053ZM1.53197 10.4053L1.67333 10.2638L0.399897 8.99133L0.25853 9.13281L0.117163 9.27429L1.3906 10.5467L1.53197 10.4053ZM0.25853 9.13281L0.399951 8.99139V8.99103L0.25853 8.84961L0.117108 8.70819C-0.0391013 8.8644 -0.0391013 9.11802 0.117108 9.27423L0.25853 9.13281ZM0.25853 8.84961L0.399897 8.99108L1.67333 7.71862L1.53197 7.57715L1.3906 7.43567L0.117163 8.70813L0.25853 8.84961ZM1.53197 7.57715L1.67323 7.71872L1.67277 7.71857L1.81419 7.57715L1.95562 7.43572C1.7993 7.27941 1.54673 7.27988 1.3907 7.43557L1.53197 7.57715ZM1.81419 7.57715L1.67277 7.71857L1.67262 7.71811L1.81419 7.85937L1.95577 8.00064C2.11146 7.84461 2.11193 7.59204 1.95562 7.43572L1.81419 7.57715ZM1.81419 7.85937L1.6727 7.71803L0.742034 8.64967L0.88353 8.79101L1.02503 8.93236L1.95569 8.00072L1.81419 7.85937ZM0.88353 8.79101V8.99101H11.9167V8.79101V8.59101H0.88353V8.79101ZM11.9167 8.79101L12.0582 8.64967L11.1276 7.71803L10.9861 7.85937L10.8446 8.00072L11.7752 8.93236L11.9167 8.79101ZM10.9861 7.85937L11.1276 7.71811L11.1275 7.71857L10.9861 7.57715L10.8446 7.43572C10.6883 7.59204 10.6888 7.84461 10.8445 8.00064L10.9861 7.85937Z" fill="#574D76"/>
<path d="M4.97436 4.41406C4.89631 4.33601 4.89642 4.20995 4.97436 4.13184L6.24682 2.8584C6.32493 2.78029 6.45192 2.78029 6.53003 2.8584L7.80249 4.13184C7.88044 4.20995 7.88054 4.33601 7.80249 4.41406C7.72444 4.49211 7.59838 4.49201 7.52026 4.41406L6.58862 3.4834L6.58862 14.5166L7.52026 13.5859C7.59838 13.508 7.72444 13.5079 7.80249 13.5859C7.88054 13.664 7.88044 13.79 7.80249 13.8682L6.53003 15.1416C6.45192 15.2197 6.32493 15.2197 6.24682 15.1416L4.97436 13.8682C4.89642 13.79 4.89631 13.664 4.97436 13.5859C5.05242 13.5079 5.17847 13.508 5.25659 13.5859L6.18823 14.5166L6.18823 3.4834L5.25659 4.41406C5.17847 4.49201 5.05241 4.49211 4.97436 4.41406Z" fill="white"/>
<path d="M4.97436 4.41406L5.11578 4.27264L5.11578 4.27264L4.97436 4.41406ZM4.97436 4.13184L4.83289 3.99047L4.83279 3.99057L4.97436 4.13184ZM6.24682 2.8584L6.1054 2.71698L6.10535 2.71703L6.24682 2.8584ZM6.53003 2.8584L6.6715 2.71703L6.67145 2.71698L6.53003 2.8584ZM7.80249 4.13184L7.94406 3.99057L7.94396 3.99047L7.80249 4.13184ZM7.80249 4.41406L7.66107 4.27264L7.66107 4.27264L7.80249 4.41406ZM7.52026 4.41406L7.37891 4.55556L7.37899 4.55564L7.52026 4.41406ZM6.58862 3.4834L6.72997 3.3419L6.38862 3.00091L6.38862 3.4834L6.58862 3.4834ZM6.58862 14.5166L6.38862 14.5166L6.38862 14.9991L6.72997 14.6581L6.58862 14.5166ZM7.52026 13.5859L7.37899 13.4444L7.37891 13.4444L7.52026 13.5859ZM7.80249 13.8682L7.94396 14.0095L7.94406 14.0094L7.80249 13.8682ZM6.53003 15.1416L6.67145 15.283L6.6715 15.283L6.53003 15.1416ZM6.24682 15.1416L6.10535 15.283L6.1054 15.283L6.24682 15.1416ZM4.97436 13.8682L4.83279 14.0094L4.83289 14.0095L4.97436 13.8682ZM5.25659 13.5859L5.39794 13.4444L5.39786 13.4444L5.25659 13.5859ZM6.18823 14.5166L6.04688 14.6581L6.38823 14.9991L6.38823 14.5166L6.18823 14.5166ZM6.18823 3.4834L6.38823 3.4834L6.38823 3.00091L6.04688 3.3419L6.18823 3.4834ZM5.25659 4.41406L5.39786 4.55564L5.39794 4.55556L5.25659 4.41406ZM4.97436 4.41406L5.11578 4.27264L5.11594 4.2731L4.97436 4.13184L4.83279 3.99057C4.67709 4.1466 4.67663 4.39917 4.83294 4.55548L4.97436 4.41406ZM4.97436 4.13184L5.11584 4.2732L6.3883 2.99977L6.24682 2.8584L6.10535 2.71703L4.83289 3.99047L4.97436 4.13184ZM6.24682 2.8584L6.38824 2.99982L6.38861 2.99982L6.53003 2.8584L6.67145 2.71698C6.51524 2.56077 6.26161 2.56077 6.1054 2.71698L6.24682 2.8584ZM6.53003 2.8584L6.38855 2.99977L7.66101 4.2732L7.80249 4.13184L7.94396 3.99047L6.6715 2.71703L6.53003 2.8584ZM7.80249 4.13184L7.66091 4.2731L7.66107 4.27264L7.80249 4.41406L7.94391 4.55548C8.10022 4.39917 8.09976 4.1466 7.94406 3.99057L7.80249 4.13184ZM7.80249 4.41406L7.66107 4.27264L7.66153 4.27249L7.52026 4.41406L7.37899 4.55564C7.53503 4.71133 7.7876 4.71179 7.94391 4.55548L7.80249 4.41406ZM7.52026 4.41406L7.66161 4.27257L6.72997 3.3419L6.58862 3.4834L6.44727 3.62489L7.37891 4.55556L7.52026 4.41406ZM6.58862 3.4834L6.38862 3.4834L6.38862 14.5166L6.58862 14.5166L6.78862 14.5166L6.78862 3.4834L6.58862 3.4834ZM6.58862 14.5166L6.72997 14.6581L7.66161 13.7274L7.52026 13.5859L7.37891 13.4444L6.44727 14.3751L6.58862 14.5166ZM7.52026 13.5859L7.66153 13.7275L7.66107 13.7274L7.80249 13.5859L7.94391 13.4445C7.7876 13.2882 7.53503 13.2887 7.37899 13.4444L7.52026 13.5859ZM7.80249 13.5859L7.66107 13.7274L7.66091 13.7269L7.80249 13.8682L7.94406 14.0094C8.09976 13.8534 8.10022 13.6008 7.94391 13.4445L7.80249 13.5859ZM7.80249 13.8682L7.66101 13.7268L6.38855 15.0002L6.53003 15.1416L6.6715 15.283L7.94396 14.0095L7.80249 13.8682ZM6.53003 15.1416L6.38861 15.0002L6.38825 15.0002L6.24682 15.1416L6.1054 15.283C6.26161 15.4392 6.51524 15.4392 6.67145 15.283L6.53003 15.1416ZM6.24682 15.1416L6.3883 15.0002L5.11584 13.7268L4.97436 13.8682L4.83289 14.0095L6.10535 15.283L6.24682 15.1416ZM4.97436 13.8682L5.11594 13.7269L5.11578 13.7274L4.97436 13.5859L4.83294 13.4445C4.67663 13.6008 4.67709 13.8534 4.83279 14.0094L4.97436 13.8682ZM4.97436 13.5859L5.11578 13.7274L5.11532 13.7275L5.25659 13.5859L5.39786 13.4444C5.24182 13.2887 4.98925 13.2882 4.83294 13.4445L4.97436 13.5859ZM5.25659 13.5859L5.11524 13.7274L6.04688 14.6581L6.18823 14.5166L6.32958 14.3751L5.39794 13.4444L5.25659 13.5859ZM6.18823 14.5166L6.38823 14.5166L6.38823 3.4834L6.18823 3.4834L5.98823 3.4834L5.98823 14.5166L6.18823 14.5166ZM6.18823 3.4834L6.04688 3.3419L5.11524 4.27257L5.25659 4.41406L5.39794 4.55556L6.32958 3.62489L6.18823 3.4834ZM5.25659 4.41406L5.11532 4.27249L5.11578 4.27264L4.97436 4.41406L4.83294 4.55548C4.98925 4.71179 5.24182 4.71133 5.39786 4.55564L5.25659 4.41406Z" fill="#574D76"/>
<path d="M17.948 14V3.43115H21.5735C22.6184 3.43115 23.5119 3.64111 24.2541 4.06104C25.0012 4.47607 25.5725 5.07666 25.968 5.86279C26.3635 6.64893 26.5612 7.59619 26.5612 8.70459V8.71924C26.5612 9.82764 26.3635 10.7773 25.968 11.5684C25.5725 12.3545 25.0036 12.9575 24.2614 13.3774C23.5193 13.7925 22.6233 14 21.5735 14H17.948ZM19.2663 12.8135H21.4856C22.2717 12.8135 22.9431 12.6523 23.4997 12.3301C24.0564 12.0078 24.4812 11.5415 24.7741 10.9312C25.0671 10.3208 25.2136 9.58838 25.2136 8.73389V8.71924C25.2136 7.85986 25.0647 7.125 24.7668 6.51465C24.4738 5.89941 24.049 5.43066 23.4924 5.1084C22.9358 4.78125 22.2668 4.61768 21.4856 4.61768H19.2663V12.8135ZM28.6853 14V6.10449H29.9597V7.27637H30.0769C30.2282 6.86133 30.4846 6.53906 30.8459 6.30957C31.2072 6.08008 31.654 5.96533 32.1862 5.96533C32.3083 5.96533 32.4279 5.97266 32.5451 5.9873C32.6672 5.99707 32.76 6.00684 32.8235 6.0166V7.25439C32.6916 7.22998 32.5622 7.21289 32.4353 7.20312C32.3132 7.18848 32.1814 7.18115 32.0398 7.18115C31.6345 7.18115 31.2756 7.26172 30.9631 7.42285C30.6506 7.58398 30.404 7.80859 30.2234 8.09668C30.0476 8.38477 29.9597 8.72168 29.9597 9.10742V14H28.6853ZM36.5661 14.1392C36.0681 14.1392 35.6189 14.0439 35.2185 13.8535C34.823 13.6631 34.508 13.3921 34.2737 13.0405C34.0442 12.689 33.9294 12.2739 33.9294 11.7954V11.7808C33.9294 11.0776 34.1784 10.5283 34.6765 10.1328C35.1794 9.73242 35.8899 9.50537 36.8078 9.45166L39.7082 9.27588V10.2939L36.9616 10.4697C36.3611 10.5039 35.9216 10.6284 35.6433 10.8433C35.3698 11.0581 35.2331 11.3608 35.2331 11.7515V11.7661C35.2331 12.1665 35.3845 12.479 35.6872 12.7036C35.99 12.9233 36.3708 13.0332 36.8298 13.0332C37.2644 13.0332 37.6501 12.9478 37.987 12.7769C38.3239 12.6011 38.5876 12.3643 38.778 12.0664C38.9734 11.7686 39.071 11.4316 39.071 11.0557V8.59473C39.071 8.10645 38.9221 7.73535 38.6242 7.48145C38.3313 7.22266 37.8894 7.09326 37.2986 7.09326C36.8249 7.09326 36.4367 7.17871 36.134 7.34961C35.8313 7.51562 35.6286 7.75244 35.5261 8.06006L35.5188 8.08203H34.2444L34.2517 8.03809C34.32 7.62305 34.4909 7.26172 34.7644 6.9541C35.0427 6.6416 35.4016 6.3999 35.841 6.229C36.2805 6.05322 36.781 5.96533 37.3425 5.96533C37.987 5.96533 38.5315 6.07031 38.9758 6.28027C39.425 6.49023 39.7644 6.79297 39.9939 7.18848C40.2282 7.5791 40.3454 8.04785 40.3454 8.59473V14H39.071V12.8354H38.9538C38.7878 13.1138 38.5852 13.3506 38.3459 13.5459C38.1115 13.7412 37.8454 13.8901 37.5476 13.9927C37.2497 14.0903 36.9226 14.1392 36.5661 14.1392ZM45.9265 16.7832C45.2917 16.7832 44.7375 16.6929 44.2639 16.5122C43.7903 16.3364 43.4118 16.085 43.1286 15.7578C42.8503 15.4355 42.677 15.0596 42.6086 14.6299L42.6233 14.6226H43.9416L43.9489 14.6299C44.0173 14.9277 44.2224 15.1719 44.5642 15.3623C44.906 15.5576 45.3601 15.6553 45.9265 15.6553C46.6345 15.6553 47.1862 15.4941 47.5818 15.1719C47.9821 14.8545 48.1823 14.4053 48.1823 13.8242V12.2275H48.0652C47.8991 12.5156 47.6916 12.7622 47.4426 12.9673C47.1936 13.1724 46.9128 13.3286 46.6003 13.436C46.2878 13.5386 45.9509 13.5898 45.5896 13.5898C44.9109 13.5898 44.3225 13.4287 43.8244 13.1064C43.3313 12.7793 42.9504 12.3301 42.6819 11.7588C42.4133 11.1875 42.279 10.5332 42.279 9.7959V9.78125C42.279 9.04395 42.4133 8.38965 42.6819 7.81836C42.9553 7.24219 43.341 6.79053 43.8391 6.46338C44.3371 6.13135 44.9304 5.96533 45.6189 5.96533C45.99 5.96533 46.3318 6.02393 46.6443 6.14111C46.9568 6.2583 47.2326 6.42432 47.4719 6.63916C47.716 6.854 47.9187 7.11035 48.0798 7.4082H48.1677V6.10449H49.4421V13.8901C49.4421 14.4761 49.2981 14.9863 49.01 15.4209C48.7268 15.8555 48.3215 16.1899 47.7942 16.4243C47.2668 16.6636 46.6443 16.7832 45.9265 16.7832ZM45.8679 12.4619C46.3562 12.4619 46.7737 12.3496 47.1203 12.125C47.4719 11.8955 47.7404 11.5806 47.926 11.1802C48.1164 10.7798 48.2116 10.3184 48.2116 9.7959V9.78125C48.2116 9.25879 48.1164 8.79492 47.926 8.38965C47.7404 7.98438 47.4719 7.66699 47.1203 7.4375C46.7737 7.20801 46.3562 7.09326 45.8679 7.09326C45.3796 7.09326 44.9646 7.20801 44.6228 7.4375C44.2859 7.66699 44.0271 7.98438 43.8464 8.38965C43.6706 8.79492 43.5827 9.25879 43.5827 9.78125V9.7959C43.5827 10.3184 43.6706 10.7798 43.8464 11.1802C44.0271 11.5806 44.2859 11.8955 44.6228 12.125C44.9646 12.3496 45.3796 12.4619 45.8679 12.4619ZM58.8391 14.0586C58.0285 14.0586 57.4402 13.895 57.0739 13.5679C56.7126 13.2407 56.532 12.7012 56.532 11.9492V7.15918H55.2868V6.10449H56.532V4.06104H57.8503V6.10449H59.5788V7.15918H57.8503V11.627C57.8503 12.0908 57.9382 12.4253 58.114 12.6304C58.2898 12.8306 58.5827 12.9307 58.9929 12.9307C59.1052 12.9307 59.2004 12.9282 59.2785 12.9233C59.3615 12.9185 59.4616 12.9111 59.5788 12.9014V13.9854C59.4568 14.0049 59.3347 14.022 59.2126 14.0366C59.0905 14.0513 58.966 14.0586 58.8391 14.0586ZM64.6252 14.1392C63.8781 14.1392 63.2312 13.9756 62.6843 13.6484C62.1423 13.3164 61.7224 12.8452 61.4245 12.2349C61.1316 11.6245 60.9851 10.8994 60.9851 10.0596V10.0449C60.9851 9.2002 61.1316 8.47266 61.4245 7.8623C61.7224 7.25195 62.1423 6.7832 62.6843 6.45605C63.2312 6.12891 63.8781 5.96533 64.6252 5.96533C65.3772 5.96533 66.0241 6.12891 66.5661 6.45605C67.1081 6.7832 67.5256 7.25195 67.8186 7.8623C68.1164 8.47266 68.2654 9.2002 68.2654 10.0449V10.0596C68.2654 10.8994 68.1164 11.6245 67.8186 12.2349C67.5256 12.8452 67.1081 13.3164 66.5661 13.6484C66.0241 13.9756 65.3772 14.1392 64.6252 14.1392ZM64.6252 13.0112C65.1233 13.0112 65.5456 12.894 65.8923 12.6597C66.239 12.4253 66.5027 12.0884 66.6833 11.6489C66.8689 11.2095 66.9616 10.6797 66.9616 10.0596V10.0449C66.9616 9.41992 66.8689 8.8877 66.6833 8.44824C66.5027 8.00879 66.239 7.67432 65.8923 7.44482C65.5456 7.21045 65.1233 7.09326 64.6252 7.09326C64.1272 7.09326 63.7048 7.21045 63.3581 7.44482C63.0114 7.67432 62.7453 8.00879 62.5598 8.44824C62.3791 8.8877 62.2888 9.41992 62.2888 10.0449V10.0596C62.2888 10.6797 62.3791 11.2095 62.5598 11.6489C62.7453 12.0884 63.0114 12.4253 63.3581 12.6597C63.7048 12.894 64.1272 13.0112 64.6252 13.0112ZM74.4616 14V6.10449H75.7361V7.29102H75.8532C76.0534 6.87109 76.3415 6.54639 76.7175 6.31689C77.0935 6.08252 77.572 5.96533 78.153 5.96533C79.0417 5.96533 79.7229 6.21924 80.1965 6.72705C80.675 7.22998 80.9143 7.9502 80.9143 8.8877V14H79.6399V9.19531C79.6399 8.48242 79.4885 7.95508 79.1858 7.61328C78.8879 7.2666 78.424 7.09326 77.7942 7.09326C77.3742 7.09326 77.0105 7.18359 76.7029 7.36426C76.3952 7.54492 76.156 7.80127 75.9851 8.1333C75.8191 8.46533 75.7361 8.86328 75.7361 9.32715V14H74.4616ZM85.3894 14.1392C84.8913 14.1392 84.4421 14.0439 84.0417 13.8535C83.6462 13.6631 83.3313 13.3921 83.0969 13.0405C82.8674 12.689 82.7527 12.2739 82.7527 11.7954V11.7808C82.7527 11.0776 83.0017 10.5283 83.4997 10.1328C84.0027 9.73242 84.7131 9.50537 85.6311 9.45166L88.5315 9.27588V10.2939L85.7849 10.4697C85.1843 10.5039 84.7448 10.6284 84.4665 10.8433C84.1931 11.0581 84.0564 11.3608 84.0564 11.7515V11.7661C84.0564 12.1665 84.2077 12.479 84.5105 12.7036C84.8132 12.9233 85.1941 13.0332 85.653 13.0332C86.0876 13.0332 86.4734 12.9478 86.8103 12.7769C87.1472 12.6011 87.4109 12.3643 87.6013 12.0664C87.7966 11.7686 87.8943 11.4316 87.8943 11.0557V8.59473C87.8943 8.10645 87.7453 7.73535 87.4475 7.48145C87.1545 7.22266 86.7126 7.09326 86.1218 7.09326C85.6482 7.09326 85.26 7.17871 84.9572 7.34961C84.6545 7.51562 84.4519 7.75244 84.3493 8.06006L84.342 8.08203H83.0676L83.0749 8.03809C83.1433 7.62305 83.3142 7.26172 83.5876 6.9541C83.8659 6.6416 84.2248 6.3999 84.6643 6.229C85.1037 6.05322 85.6042 5.96533 86.1657 5.96533C86.8103 5.96533 87.3547 6.07031 87.799 6.28027C88.2483 6.49023 88.5876 6.79297 88.8171 7.18848C89.0515 7.5791 89.1687 8.04785 89.1687 8.59473V14H87.8943V12.8354H87.7771C87.6111 13.1138 87.4084 13.3506 87.1692 13.5459C86.9348 13.7412 86.6687 13.8901 86.3708 13.9927C86.073 14.0903 85.7458 14.1392 85.3894 14.1392ZM93.4387 14L90.5163 6.10449H91.864L94.0246 12.6084H94.1418L96.3025 6.10449H97.6501L94.7278 14H93.4387ZM99.364 14V6.10449H100.638V14H99.364ZM100.009 4.58105C99.7693 4.58105 99.5617 4.49561 99.386 4.32471C99.2151 4.14893 99.1296 3.94141 99.1296 3.70215C99.1296 3.45801 99.2151 3.25049 99.386 3.07959C99.5617 2.90869 99.7693 2.82324 100.009 2.82324C100.253 2.82324 100.46 2.90869 100.631 3.07959C100.802 3.25049 100.887 3.45801 100.887 3.70215C100.887 3.94141 100.802 4.14893 100.631 4.32471C100.46 4.49561 100.253 4.58105 100.009 4.58105ZM106.293 16.7832C105.658 16.7832 105.104 16.6929 104.63 16.5122C104.156 16.3364 103.778 16.085 103.495 15.7578C103.217 15.4355 103.043 15.0596 102.975 14.6299L102.989 14.6226H104.308L104.315 14.6299C104.384 14.9277 104.589 15.1719 104.93 15.3623C105.272 15.5576 105.726 15.6553 106.293 15.6553C107.001 15.6553 107.552 15.4941 107.948 15.1719C108.348 14.8545 108.549 14.4053 108.549 13.8242V12.2275H108.431C108.265 12.5156 108.058 12.7622 107.809 12.9673C107.56 13.1724 107.279 13.3286 106.967 13.436C106.654 13.5386 106.317 13.5898 105.956 13.5898C105.277 13.5898 104.689 13.4287 104.191 13.1064C103.697 12.7793 103.317 12.3301 103.048 11.7588C102.78 11.1875 102.645 10.5332 102.645 9.7959V9.78125C102.645 9.04395 102.78 8.38965 103.048 7.81836C103.322 7.24219 103.707 6.79053 104.205 6.46338C104.703 6.13135 105.297 5.96533 105.985 5.96533C106.356 5.96533 106.698 6.02393 107.01 6.14111C107.323 6.2583 107.599 6.42432 107.838 6.63916C108.082 6.854 108.285 7.11035 108.446 7.4082H108.534V6.10449H109.808V13.8901C109.808 14.4761 109.664 14.9863 109.376 15.4209C109.093 15.8555 108.688 16.1899 108.16 16.4243C107.633 16.6636 107.01 16.7832 106.293 16.7832ZM106.234 12.4619C106.722 12.4619 107.14 12.3496 107.487 12.125C107.838 11.8955 108.107 11.5806 108.292 11.1802C108.483 10.7798 108.578 10.3184 108.578 9.7959V9.78125C108.578 9.25879 108.483 8.79492 108.292 8.38965C108.107 7.98438 107.838 7.66699 107.487 7.4375C107.14 7.20801 106.722 7.09326 106.234 7.09326C105.746 7.09326 105.331 7.20801 104.989 7.4375C104.652 7.66699 104.393 7.98438 104.213 8.38965C104.037 8.79492 103.949 9.25879 103.949 9.78125V9.7959C103.949 10.3184 104.037 10.7798 104.213 11.1802C104.393 11.5806 104.652 11.8955 104.989 12.125C105.331 12.3496 105.746 12.4619 106.234 12.4619ZM114.349 14.1392C113.851 14.1392 113.402 14.0439 113.002 13.8535C112.606 13.6631 112.291 13.3921 112.057 13.0405C111.827 12.689 111.713 12.2739 111.713 11.7954V11.7808C111.713 11.0776 111.962 10.5283 112.46 10.1328C112.963 9.73242 113.673 9.50537 114.591 9.45166L117.491 9.27588V10.2939L114.745 10.4697C114.144 10.5039 113.705 10.6284 113.426 10.8433C113.153 11.0581 113.016 11.3608 113.016 11.7515V11.7661C113.016 12.1665 113.168 12.479 113.47 12.7036C113.773 12.9233 114.154 13.0332 114.613 13.0332C115.048 13.0332 115.433 12.9478 115.77 12.7769C116.107 12.6011 116.371 12.3643 116.561 12.0664C116.757 11.7686 116.854 11.4316 116.854 11.0557V8.59473C116.854 8.10645 116.705 7.73535 116.407 7.48145C116.114 7.22266 115.673 7.09326 115.082 7.09326C114.608 7.09326 114.22 7.17871 113.917 7.34961C113.614 7.51562 113.412 7.75244 113.309 8.06006L113.302 8.08203H112.028L112.035 8.03809C112.103 7.62305 112.274 7.26172 112.548 6.9541C112.826 6.6416 113.185 6.3999 113.624 6.229C114.064 6.05322 114.564 5.96533 115.126 5.96533C115.77 5.96533 116.315 6.07031 116.759 6.28027C117.208 6.49023 117.548 6.79297 117.777 7.18848C118.011 7.5791 118.129 8.04785 118.129 8.59473V14H116.854V12.8354H116.737C116.571 13.1138 116.368 13.3506 116.129 13.5459C115.895 13.7412 115.629 13.8901 115.331 13.9927C115.033 14.0903 114.706 14.1392 114.349 14.1392ZM123.263 14.0586C122.452 14.0586 121.864 13.895 121.498 13.5679C121.136 13.2407 120.956 12.7012 120.956 11.9492V7.15918H119.711V6.10449H120.956V4.06104H122.274V6.10449H124.003V7.15918H122.274V11.627C122.274 12.0908 122.362 12.4253 122.538 12.6304C122.714 12.8306 123.007 12.9307 123.417 12.9307C123.529 12.9307 123.624 12.9282 123.702 12.9233C123.785 12.9185 123.885 12.9111 124.003 12.9014V13.9854C123.881 14.0049 123.759 14.022 123.636 14.0366C123.514 14.0513 123.39 14.0586 123.263 14.0586ZM129.027 14.1392C128.275 14.1392 127.628 13.9731 127.086 13.6411C126.549 13.3091 126.134 12.8403 125.841 12.2349C125.553 11.6245 125.409 10.9067 125.409 10.0815V10.0742C125.409 9.25879 125.553 8.54346 125.841 7.92822C126.134 7.31299 126.547 6.83203 127.079 6.48535C127.611 6.13867 128.234 5.96533 128.947 5.96533C129.664 5.96533 130.28 6.13135 130.792 6.46338C131.31 6.79541 131.705 7.25928 131.979 7.85498C132.257 8.4458 132.396 9.13428 132.396 9.92041V10.4185H126.068V9.40039H131.744L131.114 10.3306V9.8252C131.114 9.20508 131.022 8.69482 130.836 8.29443C130.651 7.89404 130.394 7.59619 130.067 7.40088C129.74 7.20068 129.364 7.10059 128.939 7.10059C128.514 7.10059 128.134 7.20557 127.797 7.41553C127.465 7.62061 127.201 7.92578 127.006 8.33105C126.81 8.73633 126.713 9.23438 126.713 9.8252V10.3306C126.713 10.8921 126.808 11.373 126.998 11.7734C127.189 12.1689 127.46 12.4741 127.811 12.689C128.163 12.8989 128.578 13.0039 129.056 13.0039C129.413 13.0039 129.723 12.9551 129.987 12.8574C130.25 12.7598 130.467 12.6353 130.638 12.4839C130.809 12.3325 130.929 12.1787 130.997 12.0225L131.027 11.9565H132.301L132.286 12.0151C132.218 12.2837 132.096 12.5449 131.92 12.7988C131.749 13.0479 131.527 13.2749 131.254 13.48C130.98 13.6802 130.655 13.8413 130.28 13.9634C129.908 14.0806 129.491 14.1392 129.027 14.1392Z" fill="#574D76"/>
</svg>
