<svg width="32" height="32" viewBox="0 0 32 32" fill="none" xmlns="http://www.w3.org/2000/svg">
<path fill-rule="evenodd" clip-rule="evenodd" d="M15.9771 8.95996C17.4075 8.96019 18.5669 10.1203 18.5669 11.5508V11.7681C18.5669 11.8722 18.6469 11.9586 18.7504 11.9686C19.7999 12.0699 20.4718 12.2665 21.0425 12.8379C21.8608 13.6578 21.9091 14.6622 22.0044 16.6689C22.0168 16.9293 22.0239 17.1814 22.0239 17.418L22.019 17.7842C22.0157 17.9092 22.0106 18.0379 22.0044 18.168L21.9692 18.875C21.8851 20.4225 21.7586 21.2807 21.0425 21.998C20.224 22.8178 19.198 22.8681 17.147 22.9688L16.5532 22.9922C16.3578 22.9975 16.1644 23 15.9771 23C15.6024 23 15.2072 22.9883 14.8081 22.9688C12.8848 22.8743 11.8626 22.8241 11.0679 22.1426L10.9126 21.998C10.2526 21.337 10.0877 20.4228 10.0214 19.5171C9.98804 19.0609 10.3593 18.6777 10.8167 18.6777H12.5288C13.2245 18.6774 13.7883 18.1136 13.7886 17.418C13.7884 16.7222 13.2245 16.1576 12.5288 16.1572H10.8177C10.36 16.1572 9.99174 15.7732 10.0282 15.3169C10.1127 14.2592 10.2718 13.5718 10.7671 12.9941L10.9126 12.8379C11.4831 12.2668 12.154 12.0699 13.2027 11.9686C13.3063 11.9586 13.3862 11.8722 13.3862 11.7682V11.5508C13.3862 10.1203 14.5466 8.96016 15.9771 8.95996ZM15.9771 10.29C15.3247 10.2902 14.7878 10.7864 14.7231 11.4219C14.7188 11.4643 14.7163 11.5073 14.7163 11.5508V12.7273C14.7163 12.9938 14.507 13.2131 14.2409 13.2276C13.5359 13.266 13.0532 13.305 12.6685 13.3848C12.2465 13.4723 12.0393 13.5918 11.853 13.7783C11.6596 13.9721 11.5425 14.1684 11.4598 14.5997C11.4369 14.7191 11.5311 14.8271 11.6527 14.8271H12.5288C13.9591 14.8275 15.1185 15.9877 15.1187 17.418C15.1184 18.8482 13.959 20.0075 12.5288 20.0078H11.6526C11.531 20.0078 11.4368 20.1158 11.4596 20.2352C11.5422 20.6678 11.6592 20.8645 11.853 21.0586C12.0392 21.2449 12.2467 21.3636 12.6685 21.4512C13.1587 21.5528 13.8079 21.5883 14.8735 21.6406C15.2562 21.6594 15.629 21.6699 15.9771 21.6699C16.3252 21.6699 16.6986 21.6594 17.0815 21.6406C18.1473 21.5883 18.7964 21.5529 19.2866 21.4512C19.7084 21.3636 19.9159 21.2451 20.1021 21.0586C20.4832 20.6767 20.5727 20.2851 20.6763 18.1045C20.6879 17.8601 20.6938 17.6292 20.6938 17.418C20.6938 17.2068 20.6879 16.9757 20.6763 16.7314C20.5728 14.552 20.4828 14.16 20.1021 13.7783C19.9159 13.5918 19.7083 13.4723 19.2866 13.3848C18.9015 13.3049 18.4184 13.266 17.7122 13.2276C17.4461 13.2131 17.2368 12.9938 17.2368 12.7273V11.5508C17.2368 11.5073 17.2353 11.4642 17.231 11.4219C17.2052 11.1677 17.1037 10.9358 16.9497 10.749C16.8728 10.6557 16.7825 10.5738 16.6821 10.5059C16.481 10.3697 16.2382 10.2901 15.9771 10.29Z" fill="#7B618F"/>
</svg>
