<svg width="16" height="16" viewBox="0 0 16 16" fill="none" xmlns="http://www.w3.org/2000/svg">
<g clip-path="url(#clip0_386_58254)">
<path d="M14.9598 5.44849C14.6334 4.66337 13.9723 3.81574 13.4532 3.54783C13.8757 4.37612 14.1203 5.20699 14.2137 5.82708C14.2137 5.8283 14.2142 5.83133 14.2152 5.83958C13.3659 3.72293 11.926 2.86943 10.7501 1.01105C10.6907 0.917084 10.6312 0.822866 10.5732 0.723553C10.5437 0.672834 10.5161 0.621004 10.4905 0.568178C10.4417 0.473861 10.404 0.374166 10.3783 0.271116C10.3784 0.266237 10.3768 0.261467 10.3736 0.257744C10.3705 0.25402 10.366 0.251611 10.3612 0.250991C10.3566 0.24967 10.3517 0.24967 10.3471 0.250991C10.346 0.251366 10.3445 0.252584 10.3433 0.253022C10.3417 0.253678 10.3396 0.255178 10.3378 0.256147C10.3387 0.255022 10.3404 0.252491 10.341 0.251897C8.45441 1.35677 7.81441 3.40068 7.75559 4.42327C7.00224 4.47506 6.28196 4.75262 5.68866 5.21977C5.62654 5.1673 5.5616 5.11827 5.49412 5.0729C5.32295 4.47402 5.31567 3.84017 5.47306 3.23752C4.70156 3.5888 4.1015 4.14408 3.66525 4.6344H3.66178C3.36406 4.2573 3.38506 3.01337 3.40203 2.75365C3.39847 2.73755 3.17994 2.86708 3.15131 2.88662C2.8886 3.07414 2.64299 3.28454 2.41737 3.51537C2.16063 3.77573 1.92605 4.05705 1.71606 4.3564C1.71606 4.35677 1.71584 4.35721 1.71572 4.35758C1.71572 4.35718 1.71594 4.35677 1.71606 4.3564C1.23314 5.04075 0.890631 5.81404 0.708344 6.63155C0.70475 6.64783 0.701719 6.66471 0.698219 6.68112C0.684094 6.74724 0.633219 7.07799 0.624313 7.14987C0.623625 7.1554 0.623312 7.16071 0.622656 7.16624C0.556882 7.5082 0.516149 7.85451 0.500781 8.2024C0.500781 8.21521 0.5 8.2279 0.5 8.24074C0.500125 12.388 3.86263 15.75 8.01025 15.75C11.7248 15.75 14.809 13.0535 15.4128 9.51152C15.4255 9.4154 15.4357 9.31877 15.4469 9.2218C15.5962 7.93399 15.4304 6.5804 14.9598 5.44849ZM6.30375 11.3264C6.33888 11.3432 6.37188 11.3616 6.40794 11.3776C6.40944 11.3787 6.4115 11.3798 6.41303 11.3808C6.37633 11.3632 6.33989 11.3451 6.30375 11.3264V11.3264ZM14.2157 5.84143L14.2148 5.83415C14.2151 5.8368 14.2156 5.83958 14.216 5.84224L14.2157 5.84143Z" fill="url(#paint0_linear_386_58254)"/>
<path d="M14.9599 5.44851C14.6335 4.66338 13.9724 3.81576 13.4533 3.54785C13.8758 4.37613 14.1203 5.20701 14.2137 5.8271C14.2137 5.82529 14.2141 5.8286 14.2149 5.83417C14.2152 5.83682 14.2157 5.8396 14.2161 5.84226C14.9247 7.7632 14.5387 9.71658 13.9824 10.9102C13.1218 12.7571 11.0382 14.6499 7.7769 14.5576C4.25331 14.4578 1.14912 11.8434 0.569653 8.41905C0.46406 7.87904 0.569653 7.60486 0.622778 7.16642C0.55806 7.50442 0.533403 7.60204 0.500903 8.20258C0.500903 8.21539 0.500122 8.22808 0.500122 8.24092C0.500185 12.388 3.86268 15.75 8.01031 15.75C11.7248 15.75 14.8091 13.0535 15.4129 9.51155C15.4256 9.41542 15.4358 9.3188 15.447 9.22183C15.5963 7.93401 15.4304 6.58042 14.9599 5.44851Z" fill="url(#paint1_radial_386_58254)"/>
<path d="M14.9599 5.44851C14.6335 4.66338 13.9724 3.81576 13.4533 3.54785C13.8758 4.37613 14.1203 5.20701 14.2137 5.8271C14.2137 5.82529 14.2141 5.8286 14.2149 5.83417C14.2152 5.83682 14.2157 5.8396 14.2161 5.84226C14.9247 7.7632 14.5387 9.71658 13.9824 10.9102C13.1218 12.7571 11.0382 14.6499 7.7769 14.5576C4.25331 14.4578 1.14912 11.8434 0.569653 8.41905C0.46406 7.87904 0.569653 7.60486 0.622778 7.16642C0.55806 7.50442 0.533403 7.60204 0.500903 8.20258C0.500903 8.21539 0.500122 8.22808 0.500122 8.24092C0.500185 12.388 3.86268 15.75 8.01031 15.75C11.7248 15.75 14.8091 13.0535 15.4129 9.51155C15.4256 9.41542 15.4358 9.3188 15.447 9.22183C15.5963 7.93401 15.4304 6.58042 14.9599 5.44851Z" fill="url(#paint2_radial_386_58254)"/>
<path d="M11.3102 6.33127C11.3266 6.34277 11.3415 6.35421 11.3569 6.36564C11.1684 6.03113 10.9337 5.72487 10.6597 5.45589C8.32514 3.12164 10.0475 0.394581 10.338 0.256081C10.3388 0.254956 10.3406 0.252425 10.3411 0.251831C8.45455 1.35671 7.81455 3.40061 7.75574 4.42321C7.84324 4.41714 7.93049 4.4098 8.01955 4.4098C9.42739 4.4098 10.6536 5.18386 11.3102 6.33127V6.33127Z" fill="url(#paint3_radial_386_58254)"/>
<path d="M8.02429 6.79735C8.01201 6.98416 7.35198 7.62838 7.12117 7.62838C4.98557 7.62838 4.63892 8.92009 4.63892 8.92009C4.73351 10.0079 5.49082 10.9037 6.40801 11.3777C6.44985 11.3993 6.4922 11.4188 6.53457 11.4382C6.60722 11.4703 6.68079 11.5004 6.75517 11.5283C7.06965 11.6397 7.39905 11.7032 7.73238 11.7168C11.4755 11.8924 12.2007 7.242 9.49942 5.89157C10.1912 5.77126 10.9093 6.04947 11.3103 6.33116C10.6536 5.18385 9.42745 4.40979 8.01963 4.40979C7.93057 4.40979 7.84335 4.41713 7.75582 4.4232C7.00246 4.47499 6.28218 4.75255 5.68888 5.21969C5.80338 5.31657 5.93263 5.44607 6.20495 5.71432C6.71438 6.21641 8.02151 6.73635 8.02429 6.79735V6.79735Z" fill="url(#paint4_radial_386_58254)"/>
<path d="M8.02429 6.79735C8.01201 6.98416 7.35198 7.62838 7.12117 7.62838C4.98557 7.62838 4.63892 8.92009 4.63892 8.92009C4.73351 10.0079 5.49082 10.9037 6.40801 11.3777C6.44985 11.3993 6.4922 11.4188 6.53457 11.4382C6.60722 11.4703 6.68079 11.5004 6.75517 11.5283C7.06965 11.6397 7.39905 11.7032 7.73238 11.7168C11.4755 11.8924 12.2007 7.242 9.49942 5.89157C10.1912 5.77126 10.9093 6.04947 11.3103 6.33116C10.6536 5.18385 9.42745 4.40979 8.01963 4.40979C7.93057 4.40979 7.84335 4.41713 7.75582 4.4232C7.00246 4.47499 6.28218 4.75255 5.68888 5.21969C5.80338 5.31657 5.93263 5.44607 6.20495 5.71432C6.71438 6.21641 8.02151 6.73635 8.02429 6.79735V6.79735Z" fill="url(#paint5_radial_386_58254)"/>
<path d="M5.33851 4.96993C5.39081 5.00367 5.4427 5.03804 5.49417 5.07305C5.32299 4.47417 5.31571 3.84032 5.4731 3.23767C4.7016 3.58895 4.10153 4.14424 3.66528 4.63455C3.70138 4.63352 4.79073 4.61393 5.33851 4.96993V4.96993Z" fill="url(#paint6_radial_386_58254)"/>
<path d="M0.569643 8.41901C1.14911 11.8433 4.2533 14.4578 7.77689 14.5576C11.0382 14.6499 13.1218 12.7569 13.9824 10.9102C14.5386 9.71645 14.9247 7.76332 14.2161 5.84223L14.2159 5.84142L14.2149 5.83414C14.2141 5.82858 14.2136 5.82526 14.2137 5.82708C14.2137 5.8283 14.2142 5.83133 14.2152 5.83958C14.4816 7.57898 13.5968 9.26407 12.2136 10.4034L12.2095 10.4132C9.5143 12.6077 6.93527 11.7372 6.41308 11.3809C6.37638 11.3633 6.33992 11.3451 6.30371 11.3264C4.73239 10.5755 4.08327 9.14401 4.22246 7.91632C2.89567 7.91632 2.44327 6.79729 2.44327 6.79729C2.44327 6.79729 3.63449 5.94795 5.20446 6.68664C6.65852 7.37079 8.02408 6.79736 8.02424 6.79729C8.02145 6.73629 6.71433 6.21636 6.20477 5.7143C5.93249 5.44605 5.80321 5.3167 5.68871 5.21967C5.62659 5.1672 5.56165 5.11817 5.49417 5.0728C5.44265 5.03787 5.39076 5.0035 5.33852 4.96967C4.79077 4.61367 3.70139 4.63327 3.6653 4.6342H3.66183C3.36411 4.25711 3.38511 3.01317 3.40208 2.75346C3.39852 2.73736 3.17999 2.86689 3.15136 2.88642C2.88865 3.07395 2.64304 3.28435 2.41742 3.51517C2.16067 3.7756 1.92609 4.05698 1.71611 4.35639C1.71611 4.35677 1.71589 4.3572 1.71577 4.35758C1.71577 4.35717 1.71599 4.35677 1.71611 4.35639C1.23319 5.04075 0.890681 5.81403 0.708393 6.63154C0.704799 6.64783 0.43808 7.81411 0.569643 8.41901V8.41901Z" fill="url(#paint7_radial_386_58254)"/>
<path d="M10.6597 5.4558C10.9337 5.72478 11.1684 6.03104 11.3569 6.36555C11.3982 6.39662 11.4369 6.42758 11.4696 6.4578C13.1722 8.02655 12.2801 10.2453 12.2136 10.4034C13.5968 9.26405 14.4816 7.57896 14.2152 5.83955C13.366 3.72293 11.926 2.86943 10.7502 1.01105C10.6908 0.917084 10.6313 0.822866 10.5733 0.723553C10.5437 0.672834 10.5162 0.621004 10.4906 0.568178C10.4417 0.473861 10.404 0.374166 10.3783 0.271116C10.3785 0.266237 10.3768 0.261467 10.3737 0.257744C10.3705 0.25402 10.3661 0.251611 10.3612 0.250991C10.3566 0.24967 10.3517 0.24967 10.3471 0.250991C10.3461 0.251366 10.3445 0.252584 10.3434 0.253022C10.3417 0.253678 10.3396 0.255178 10.3379 0.256147C10.0475 0.394522 8.32517 3.12158 10.6597 5.4558V5.4558Z" fill="url(#paint8_radial_386_58254)"/>
<path d="M11.4696 6.45779C11.4368 6.42757 11.3982 6.3966 11.3569 6.36554C11.3416 6.35404 11.3266 6.3426 11.3102 6.33117C10.9092 6.04948 10.1912 5.77126 9.49937 5.89157C12.2007 7.24201 11.4755 11.8924 7.73234 11.7168C7.399 11.7032 7.0696 11.6397 6.75512 11.5283C6.68075 11.5004 6.60719 11.4703 6.53452 11.4382C6.49215 11.4188 6.4498 11.3993 6.40796 11.3777C6.40946 11.3787 6.41152 11.3799 6.41305 11.3808C6.93524 11.7371 9.51428 12.6076 12.2094 10.4131L12.2136 10.4033C12.2801 10.2454 13.1722 8.02657 11.4696 6.45779V6.45779Z" fill="url(#paint9_radial_386_58254)"/>
<path d="M4.63884 8.92006C4.63884 8.92006 4.98549 7.62834 7.12109 7.62834C7.35197 7.62834 8.012 6.98412 8.02422 6.79731C8.03644 6.61049 6.65859 7.37081 5.20443 6.68665C3.63446 5.94796 2.44324 6.79731 2.44324 6.79731C2.44324 6.79731 2.89564 7.91634 4.22243 7.91634C4.08327 9.14402 4.7324 10.5757 6.30369 11.3265C6.33881 11.3432 6.37181 11.3616 6.40787 11.3777C5.49075 10.9036 4.73343 10.0079 4.63884 8.92006V8.92006Z" fill="url(#paint10_radial_386_58254)"/>
<path d="M14.9598 5.44849C14.6334 4.66337 13.9723 3.81574 13.4532 3.54783C13.8757 4.37612 14.1202 5.20699 14.2137 5.82708C14.2137 5.8283 14.2142 5.83133 14.2152 5.83958C13.3659 3.72293 11.926 2.86943 10.7501 1.01105C10.6907 0.917084 10.6312 0.822866 10.5732 0.723553C10.5437 0.672834 10.5161 0.621004 10.4905 0.568178C10.4417 0.473861 10.404 0.374166 10.3782 0.271116C10.3784 0.266237 10.3768 0.261467 10.3736 0.257744C10.3705 0.25402 10.366 0.251611 10.3612 0.250991C10.3566 0.24967 10.3517 0.24967 10.3471 0.250991C10.346 0.251366 10.3445 0.252584 10.3433 0.253022C10.3417 0.253678 10.3396 0.255178 10.3378 0.256147C10.3387 0.255022 10.3404 0.252491 10.341 0.251897C8.4544 1.35677 7.8144 3.40068 7.75559 4.42327C7.84309 4.41721 7.93034 4.40987 8.0194 4.40987C9.42731 4.40987 10.6535 5.18393 11.31 6.33124C10.909 6.04955 10.191 5.77133 9.49918 5.89165C12.2005 7.24208 11.4753 11.8925 7.73215 11.7169C7.39882 11.7033 7.06942 11.6398 6.75493 11.5284C6.68057 11.5005 6.607 11.4704 6.53434 11.4382C6.49197 11.4189 6.44962 11.3994 6.40778 11.3778C6.40928 11.3788 6.41134 11.38 6.41287 11.3809C6.37617 11.3632 6.33971 11.3451 6.3035 11.3264C6.33862 11.3432 6.37162 11.3616 6.40768 11.3776C5.4905 10.9036 4.73318 10.0079 4.63859 8.92005C4.63859 8.92005 4.98525 7.62833 7.12084 7.62833C7.35172 7.62833 8.01175 6.98412 8.02397 6.7973C8.02118 6.7363 6.71406 6.21637 6.2045 5.7143C5.93222 5.44605 5.80293 5.31671 5.68843 5.21968C5.62632 5.16721 5.56138 5.11818 5.4939 5.0728C5.32273 4.47393 5.31545 3.84008 5.47284 3.23743C4.70134 3.58871 4.10128 4.14399 3.66503 4.6343H3.66156C3.36384 4.25721 3.38484 3.01327 3.40181 2.75355C3.39825 2.73746 3.17972 2.86699 3.15109 2.88652C2.88838 3.07404 2.64277 3.28445 2.41715 3.51527C2.16048 3.77567 1.92597 4.05702 1.71606 4.3564C1.71606 4.35677 1.71584 4.35721 1.71572 4.35758C1.71572 4.35718 1.71593 4.35677 1.71606 4.3564C1.23313 5.04075 0.890628 5.81404 0.708341 6.63155C0.704747 6.64783 0.701716 6.66471 0.698216 6.68112C0.684091 6.74724 0.620528 7.08277 0.611653 7.15474C0.610966 7.16027 0.61231 7.14924 0.611653 7.15474C0.553689 7.50147 0.516705 7.85137 0.500903 8.20255C0.500903 8.21537 0.500122 8.22805 0.500122 8.2409C0.500122 12.388 3.86262 15.75 8.01025 15.75C11.7248 15.75 14.809 13.0535 15.4128 9.51152C15.4255 9.4154 15.4357 9.31877 15.4469 9.2218C15.5962 7.93399 15.4304 6.5804 14.9598 5.44849ZM14.2148 5.83415C14.2152 5.8368 14.2157 5.83958 14.2161 5.84224L14.2158 5.84143L14.2148 5.83415V5.83415Z" fill="url(#paint11_linear_386_58254)"/>
</g>
<defs>
<linearGradient id="paint0_linear_386_58254" x1="13.5876" y1="2.65249" x2="1.52863" y2="14.2851" gradientUnits="userSpaceOnUse">
<stop offset="0.05" stop-color="#FFF44F"/>
<stop offset="0.37" stop-color="#FF980E"/>
<stop offset="0.53" stop-color="#FF3647"/>
<stop offset="0.7" stop-color="#E31587"/>
</linearGradient>
<radialGradient id="paint1_radial_386_58254" cx="0" cy="0" r="1" gradientUnits="userSpaceOnUse" gradientTransform="translate(10.8937 1.97781) scale(15.3601 15.6187)">
<stop offset="0.13" stop-color="#FFBD4F"/>
<stop offset="0.28" stop-color="#FF980E"/>
<stop offset="0.47" stop-color="#FF3750"/>
<stop offset="0.78" stop-color="#EB0878"/>
<stop offset="0.86" stop-color="#E50080"/>
</radialGradient>
<radialGradient id="paint2_radial_386_58254" cx="0" cy="0" r="1" gradientUnits="userSpaceOnUse" gradientTransform="translate(6.43991 8.42871) scale(15.7441 15.6187)">
<stop offset="0.3" stop-color="#960E18"/>
<stop offset="0.35" stop-color="#B11927" stop-opacity="0.74"/>
<stop offset="0.43" stop-color="#DB293D" stop-opacity="0.34"/>
<stop offset="0.5" stop-color="#F5334B" stop-opacity="0.09"/>
<stop offset="0.53" stop-color="#FF3750" stop-opacity="0"/>
</radialGradient>
<radialGradient id="paint3_radial_386_58254" cx="0" cy="0" r="1" gradientUnits="userSpaceOnUse" gradientTransform="translate(9.48428 -0.481827) scale(5.04158 8.55934)">
<stop offset="0.13" stop-color="#FFF44F"/>
<stop offset="0.53" stop-color="#FF980E"/>
</radialGradient>
<radialGradient id="paint4_radial_386_58254" cx="0" cy="0" r="1" gradientUnits="userSpaceOnUse" gradientTransform="translate(6.15731 12.4609) scale(6.67134 7.31186)">
<stop offset="0.35" stop-color="#3A8EE6"/>
<stop offset="0.67" stop-color="#9059FF"/>
<stop offset="1" stop-color="#C139E6"/>
</radialGradient>
<radialGradient id="paint5_radial_386_58254" cx="0" cy="0" r="1" gradientUnits="userSpaceOnUse" gradientTransform="translate(7.29723 6.8227) scale(3.54248 4.314)">
<stop offset="0.21" stop-color="#9059FF" stop-opacity="0"/>
<stop offset="0.97" stop-color="#6E008B" stop-opacity="0.6"/>
</radialGradient>
<radialGradient id="paint6_radial_386_58254" cx="0" cy="0" r="1" gradientUnits="userSpaceOnUse" gradientTransform="translate(7.50594 1.40229) scale(5.30376 5.32261)">
<stop offset="0.1" stop-color="#FFE226"/>
<stop offset="0.79" stop-color="#FF7139"/>
</radialGradient>
<radialGradient id="paint7_radial_386_58254" cx="0" cy="0" r="1" gradientUnits="userSpaceOnUse" gradientTransform="translate(12.3498 -2.08951) scale(25.3212 21.2557)">
<stop offset="0.11" stop-color="#FFF44F"/>
<stop offset="0.46" stop-color="#FF980E"/>
<stop offset="0.72" stop-color="#FF3647"/>
<stop offset="0.9" stop-color="#E31587"/>
</radialGradient>
<radialGradient id="paint8_radial_386_58254" cx="0" cy="0" r="1" gradientTransform="matrix(1.75321 7.8399 -35.2213 1.73989 2.94598 4.92997)" gradientUnits="userSpaceOnUse">
<stop stop-color="#FFF44F"/>
<stop offset="0.3" stop-color="#FF980E"/>
<stop offset="0.57" stop-color="#FF3647"/>
<stop offset="0.74" stop-color="#E31587"/>
</radialGradient>
<radialGradient id="paint9_radial_386_58254" cx="0" cy="0" r="1" gradientUnits="userSpaceOnUse" gradientTransform="translate(7.56052 3.3166) scale(14.5381 14.2826)">
<stop offset="0.14" stop-color="#FFF44F"/>
<stop offset="0.48" stop-color="#FF980E"/>
<stop offset="0.66" stop-color="#FF3647"/>
<stop offset="0.9" stop-color="#E31587"/>
</radialGradient>
<radialGradient id="paint10_radial_386_58254" cx="0" cy="0" r="1" gradientUnits="userSpaceOnUse" gradientTransform="translate(11.3339 4.15193) scale(17.4743 15.6328)">
<stop offset="0.09" stop-color="#FFF44F"/>
<stop offset="0.63" stop-color="#FF980E"/>
</radialGradient>
<linearGradient id="paint11_linear_386_58254" x1="12.5001" y1="2.41999" x2="2.85713" y2="12.9561" gradientUnits="userSpaceOnUse">
<stop offset="0.17" stop-color="#FFF44F" stop-opacity="0.8"/>
<stop offset="0.6" stop-color="#FFF44F" stop-opacity="0"/>
</linearGradient>
<clipPath id="clip0_386_58254">
<rect width="16" height="16" fill="white"/>
</clipPath>
</defs>
</svg>
