<svg width="32" height="32" viewBox="0 0 32 32" fill="none" xmlns="http://www.w3.org/2000/svg">
<path d="M9.09091 22.0031H11.6364V15.8213L8 13.094V20.9122C8 21.5158 8.48909 22.0031 9.09091 22.0031Z" fill="#4285F4"/>
<path d="M20.3636 22.0031H22.9091C23.5127 22.0031 24 21.514 24 20.9122V13.094L20.3636 15.8213" fill="#34A853"/>
<path d="M20.3636 11.094V15.8213L24 13.094V11.6395C24 10.2904 22.46 9.52128 21.3818 10.3304" fill="#FBBC04"/>
<path d="M11.6364 15.8213V11.094L16 14.3667L20.3636 11.094V15.8213L16 19.094" fill="#EA4335"/>
<path d="M8 11.6395V13.094L11.6364 15.8213V11.094L10.6182 10.3304C9.53818 9.52128 8 10.2904 8 11.6395" fill="#C5221F"/>
</svg>
