<svg width="32" height="32" viewBox="0 0 32 32" fill="none" xmlns="http://www.w3.org/2000/svg">
<path d="M21.2773 18.8965C21.6663 18.8652 22 19.1722 22 19.5625C21.9999 19.9059 21.7378 20.1917 21.3955 20.2197C20.2594 20.3127 17.7617 20.5 16 20.5C14.2382 20.5 11.7397 20.3127 10.6035 20.2197C10.2613 20.1917 9.99916 19.9059 9.99902 19.5625C9.99902 19.1723 10.3328 18.8653 10.7217 18.8965C11.9057 18.9921 14.2972 19.166 16 19.166C17.7028 19.166 20.0935 18.992 21.2773 18.8965ZM21.333 15.333C21.7012 15.333 22 15.6318 22 16C22 16.3682 21.7012 16.667 21.333 16.667H10.665C10.297 16.6668 9.99902 16.3681 9.99902 16C9.99902 15.6319 10.297 15.3332 10.665 15.333H21.333ZM16 11.5029C17.7615 11.503 20.2593 11.6882 21.3955 11.7803C21.738 11.8081 22 12.0948 22 12.4385C21.9999 12.8285 21.6662 13.1356 21.2773 13.1045C20.0935 13.0098 17.7029 12.8369 16 12.8369C14.297 12.8369 11.9055 13.0098 10.7217 13.1045C10.3329 13.1356 9.99915 12.8285 9.99902 12.4385C9.99902 12.0949 10.2611 11.8082 10.6035 11.7803C11.7399 11.6882 14.2384 11.5029 16 11.5029Z" fill="#7B618F"/>
</svg>
