<svg width="32" height="32" viewBox="0 0 32 32" fill="none" xmlns="http://www.w3.org/2000/svg">
<path d="M15.5433 9.93122C15.2837 9.67161 14.8616 9.67177 14.6019 9.93122L9.35779 15.1763C8.90287 15.6313 8.90284 16.3689 9.35779 16.8238L14.6019 22.0689C14.8616 22.3284 15.2837 22.3286 15.5433 22.0689C15.8027 21.8093 15.8028 21.3871 15.5433 21.1275L11.421 17.0061C11.295 16.8801 11.3842 16.6646 11.5624 16.6646H22.3236C22.6907 16.6644 22.9886 16.3667 22.9886 15.9996C22.9884 15.6326 22.6906 15.3347 22.3236 15.3345H11.5642C11.386 15.3345 11.2968 15.1191 11.4228 14.9931L15.5433 10.8717C15.8023 10.612 15.8025 10.1907 15.5433 9.93122Z" fill="#7B618F"/>
</svg>
