<svg width="32" height="32" viewBox="0 0 32 32" fill="none" xmlns="http://www.w3.org/2000/svg">
<path d="M15.5 9.5C16.9547 9.5 18.2962 9.97955 19.3789 10.7871L19.3809 10.7852C19.9191 11.1731 20.3778 11.652 20.7402 12.1943C20.7733 12.2438 20.8501 12.2308 20.8633 12.1729L20.9512 11.7842C21.0326 11.4254 21.3902 11.2003 21.749 11.2812C22.1077 11.3627 22.3329 11.7193 22.252 12.0781L21.9219 13.5361C21.8914 13.6708 21.8557 13.8373 21.8047 13.9746C21.7468 14.1303 21.6382 14.3395 21.4072 14.4854C21.1762 14.631 20.9408 14.6378 20.7754 14.623C20.6329 14.6103 20.4709 14.5741 20.3379 14.5439L20.3271 14.542L18.8711 14.2119C18.512 14.1306 18.2869 13.7731 18.3682 13.4141C18.4496 13.0552 18.8061 12.83 19.165 12.9111L19.5361 12.9951C19.5938 13.0078 19.6379 12.9444 19.6045 12.8955C19.3548 12.5308 19.0471 12.2055 18.6904 11.9336V11.9346C17.8123 11.243 16.7049 10.8301 15.5 10.8301C12.6447 10.8301 10.3301 13.1447 10.3301 16C10.3301 18.8553 12.6447 21.1699 15.5 21.1699C17.9073 21.1699 19.9303 19.5243 20.5059 17.2969H20.5078L20.5312 17.2324C20.664 16.8905 21.0494 16.7204 21.3916 16.8525C21.7321 16.9845 21.9019 17.367 21.7734 17.708C21.0234 20.4693 18.4988 22.5 15.5 22.5C11.9101 22.5 9 19.5899 9 16C9 12.4101 11.9101 9.5 15.5 9.5Z" fill="#7B618F"/>
</svg>
