<svg width="32" height="32" viewBox="0 0 32 32" fill="none" xmlns="http://www.w3.org/2000/svg">
<path d="M16.4619 9.93122C16.7215 9.6716 17.1436 9.67176 17.4033 9.93122L22.6475 15.1763C23.1024 15.6313 23.1024 16.3688 22.6475 16.8238L17.4033 22.0689C17.1436 22.3284 16.7215 22.3285 16.4619 22.0689C16.2025 21.8093 16.2025 21.3871 16.4619 21.1275L20.5843 17.0061C20.7103 16.8801 20.6211 16.6646 20.4429 16.6646H9.68164C9.31453 16.6644 9.0166 16.3667 9.0166 15.9996C9.01683 15.6326 9.31467 15.3347 9.68164 15.3345H20.4411C20.6192 15.3345 20.7085 15.1191 20.5825 14.9931L16.4619 10.8716C16.2029 10.612 16.2027 10.1907 16.4619 9.93122Z" fill="#7B618F"/>
</svg>
