<svg width="32" height="32" viewBox="0 0 32 32" fill="none" xmlns="http://www.w3.org/2000/svg">
<path d="M15.998 9.67188C17.0326 9.67188 18.0395 9.76093 18.9961 9.86328C20.6339 10.0385 21.9439 11.3507 22.126 12.9844C22.2331 13.9456 22.3291 14.9595 22.3291 16.002C22.3291 17.0447 22.2331 18.0592 22.126 19.0205C21.9438 20.6542 20.6339 21.9654 18.9961 22.1406C18.0395 22.243 17.0326 22.333 15.998 22.333C14.9635 22.333 13.9567 22.243 13 22.1406C11.3623 21.9653 10.0522 20.6541 9.87012 19.0205C9.76296 18.0591 9.66797 17.0447 9.66797 16.002C9.66799 14.9595 9.76298 13.9456 9.87012 12.9844C10.0522 11.3508 11.3623 10.0386 13 9.86328C13.9567 9.76093 14.9635 9.67189 15.998 9.67188ZM15.998 11.1719C15.474 11.1719 14.9531 11.198 14.4336 11.2373V20.7676C14.9531 20.8069 15.474 20.833 15.998 20.833C16.9511 20.833 17.8946 20.7503 18.8369 20.6494C19.7716 20.5494 20.5311 19.7921 20.6357 18.8545C20.7415 17.906 20.8291 16.9586 20.8291 16.002C20.8291 15.0455 20.7414 14.0987 20.6357 13.1504C20.5312 12.2128 19.7717 11.4555 18.8369 11.3555C17.8946 11.2546 16.9511 11.1719 15.998 11.1719Z" fill="#7B618F"/>
</svg>
