<svg width="28" height="28" viewBox="0 0 28 28" fill="none" xmlns="http://www.w3.org/2000/svg">
<path d="M9.00073 13C9.14363 13 9.30175 13.0134 9.44506 13.0303C9.65669 13.0552 9.7627 13.0678 9.84448 13.1494C9.92627 13.2311 9.93992 13.3392 9.96557 13.5557C9.98578 13.7263 10.0024 13.912 10.0007 14.0498C9.99926 14.1693 9.98584 14.3122 9.96948 14.4463C9.94342 14.6598 9.92987 14.7663 9.84838 14.8477C9.7669 14.9289 9.65985 14.9422 9.44604 14.9678C9.2968 14.9856 9.13491 15 9.00073 15C8.8664 15 8.70388 14.9857 8.55444 14.9678C8.34058 14.9422 8.23359 14.929 8.15209 14.8477C8.07066 14.7664 8.05705 14.6598 8.031 14.4463C8.01464 14.3122 8.00219 14.1693 8.00073 14.0498C7.99906 13.912 8.01567 13.7263 8.03588 13.5557C8.06152 13.3393 8.07422 13.2311 8.156 13.1494C8.23779 13.0677 8.34369 13.0552 8.55541 13.0303C8.69891 13.0134 8.85764 13 9.00073 13ZM14.0007 13C14.1436 13 14.3017 13.0134 14.4451 13.0303C14.6567 13.0552 14.7627 13.0678 14.8445 13.1494C14.9263 13.2311 14.9399 13.3392 14.9656 13.5557C14.9858 13.7263 15.0024 13.912 15.0007 14.0498C14.9993 14.1693 14.9858 14.3122 14.9695 14.4463C14.9434 14.6598 14.9299 14.7663 14.8484 14.8477C14.7669 14.9289 14.6598 14.9422 14.446 14.9678C14.2968 14.9856 14.1349 15 14.0007 15C13.8664 15 13.7039 14.9857 13.5544 14.9678C13.3406 14.9422 13.2336 14.929 13.1521 14.8477C13.0707 14.7664 13.0571 14.6598 13.031 14.4463C13.0146 14.3122 13.0022 14.1693 13.0007 14.0498C12.9991 13.912 13.0157 13.7263 13.0359 13.5557C13.0615 13.3393 13.0742 13.2311 13.156 13.1494C13.2378 13.0677 13.3437 13.0552 13.5554 13.0303C13.6989 13.0134 13.8576 13 14.0007 13ZM19.0007 13C19.1436 13 19.3017 13.0134 19.4451 13.0303C19.6567 13.0552 19.7627 13.0678 19.8445 13.1494C19.9263 13.2311 19.9399 13.3392 19.9656 13.5557C19.9858 13.7263 20.0024 13.912 20.0007 14.0498C19.9993 14.1693 19.9858 14.3122 19.9695 14.4463C19.9434 14.6598 19.9299 14.7663 19.8484 14.8477C19.7669 14.9289 19.6598 14.9422 19.446 14.9678C19.2968 14.9856 19.1349 15 19.0007 15C18.8664 15 18.7039 14.9857 18.5544 14.9678C18.3406 14.9422 18.2336 14.929 18.1521 14.8477C18.0707 14.7664 18.0571 14.6598 18.031 14.4463C18.0146 14.3122 18.0022 14.1693 18.0007 14.0498C17.9991 13.912 18.0157 13.7263 18.0359 13.5557C18.0615 13.3393 18.0742 13.2311 18.156 13.1494C18.2378 13.0677 18.3437 13.0552 18.5554 13.0303C18.6989 13.0134 18.8576 13 19.0007 13Z" fill="#7B618F"/>
</svg>
