<svg width="214" height="34" viewBox="0 0 214 34" fill="none" xmlns="http://www.w3.org/2000/svg">
<g clip-path="url(#clip0_386_58171)">
<path d="M1 17C1 8.16344 8.16344 1 17 1H197C205.837 1 213 8.16344 213 17V17C213 25.8366 205.837 33 197 33H17C8.16344 33 1 25.8366 1 17V17Z" fill="white"/>
<mask id="mask0_386_58171" style="mask-type:alpha" maskUnits="userSpaceOnUse" x="1" y="1" width="212" height="32">
<rect x="1" y="1" width="212" height="32" fill="url(#paint0_linear_386_58171)"/>
</mask>
<g mask="url(#mask0_386_58171)">
<path d="M18.9998 10.2664C19.9728 10.2664 20.4469 11.0381 20.6092 11.3298C20.8062 11.6839 20.992 12.1713 21.1727 12.6375L21.561 13.6409C21.6062 13.7578 21.6288 13.8162 21.6765 13.8508C21.7241 13.8855 21.7867 13.889 21.9118 13.8959L22.9861 13.9558C23.4854 13.9836 24.0064 14.0087 24.4041 14.0867C24.7314 14.1508 25.612 14.3632 25.9129 15.2888C26.2137 16.2146 25.6253 16.9039 25.3983 17.1482C25.1224 17.4449 24.7165 17.7717 24.3289 18.0876L23.4948 18.7674C23.3977 18.8465 23.3491 18.8861 23.3309 18.9422C23.3127 18.9982 23.3287 19.0588 23.3608 19.1799L23.6365 20.2205C23.7644 20.7038 23.9003 21.2069 23.949 21.6091C23.9892 21.9402 24.0598 22.8436 23.2723 23.4158C22.4849 23.9877 21.6481 23.6412 21.3455 23.5007C20.978 23.33 20.5412 23.0452 20.1209 22.7742L19.2167 22.1906C19.1114 22.1226 19.0588 22.0886 18.9998 22.0886C18.9409 22.0886 18.8882 22.1226 18.7829 22.1906L17.8787 22.7742C17.4586 23.0451 17.0225 23.33 16.6551 23.5007C16.3526 23.6412 15.5149 23.9879 14.7274 23.4158C13.94 22.8436 14.0105 21.9403 14.0506 21.6091C14.0994 21.2069 14.2362 20.7039 14.3641 20.2205L14.639 19.1798C14.671 19.0587 14.687 18.9982 14.6688 18.9422C14.6506 18.8862 14.602 18.8466 14.505 18.7675L13.6707 18.0876C13.2832 17.7718 12.8772 17.4449 12.6014 17.1482C12.3742 16.9038 11.786 16.2144 12.0867 15.2888L12.1502 15.1238C12.4961 14.3374 13.2897 14.1468 13.5965 14.0867C13.994 14.0088 14.5144 13.9836 15.0135 13.9558L16.0873 13.8959C16.2122 13.889 16.2747 13.8855 16.3223 13.8509C16.3699 13.8164 16.3925 13.758 16.4379 13.6414L16.8279 12.6375C17.0086 12.1713 17.1935 11.6839 17.3904 11.3298C17.5527 11.0383 18.0268 10.2665 18.9998 10.2664Z" fill="#7B618F"/>
<path d="M36.1934 22.5V13.3975H38.7832C39.5703 13.3975 40.1945 13.59 40.6558 13.9751C41.117 14.3602 41.3477 14.8617 41.3477 15.4795C41.3477 15.9958 41.208 16.4443 40.9287 16.8252C40.6494 17.2061 40.2643 17.4769 39.7734 17.6377V17.6631C40.387 17.735 40.8779 17.9678 41.2461 18.3613C41.6143 18.7507 41.7983 19.2585 41.7983 19.8848C41.7983 20.6634 41.519 21.2939 40.9604 21.7764C40.4019 22.2588 39.6973 22.5 38.8467 22.5H36.1934ZM37.2598 14.3623V17.3013H38.3516C38.9355 17.3013 39.3947 17.1616 39.729 16.8823C40.0633 16.5988 40.2305 16.201 40.2305 15.689C40.2305 14.8045 39.6486 14.3623 38.4849 14.3623H37.2598ZM37.2598 18.2598V21.5352H38.707C39.3333 21.5352 39.8179 21.387 40.1606 21.0908C40.5076 20.7946 40.6812 20.3883 40.6812 19.8721C40.6812 18.7972 39.9491 18.2598 38.4849 18.2598H37.2598ZM46.2227 22.6523C45.262 22.6523 44.494 22.3498 43.9185 21.7446C43.3472 21.1353 43.0615 20.3291 43.0615 19.3262C43.0615 18.2344 43.3599 17.3817 43.9565 16.7681C44.5532 16.1545 45.3594 15.8477 46.375 15.8477C47.3441 15.8477 48.0994 16.146 48.6411 16.7427C49.187 17.3394 49.46 18.1667 49.46 19.2246C49.46 20.2614 49.1659 21.0929 48.5776 21.7192C47.9937 22.3413 47.2087 22.6523 46.2227 22.6523ZM46.2988 16.7236C45.6302 16.7236 45.1012 16.9521 44.7119 17.4092C44.3226 17.862 44.1279 18.4883 44.1279 19.2881C44.1279 20.0583 44.3247 20.6655 44.7183 21.1099C45.1118 21.5542 45.6387 21.7764 46.2988 21.7764C46.9717 21.7764 47.488 21.5584 47.8477 21.1226C48.2116 20.6867 48.3936 20.0667 48.3936 19.2627C48.3936 18.4502 48.2116 17.8239 47.8477 17.3838C47.488 16.9437 46.9717 16.7236 46.2988 16.7236ZM53.8398 22.6523C52.8792 22.6523 52.1112 22.3498 51.5356 21.7446C50.9644 21.1353 50.6787 20.3291 50.6787 19.3262C50.6787 18.2344 50.9771 17.3817 51.5737 16.7681C52.1704 16.1545 52.9766 15.8477 53.9922 15.8477C54.9613 15.8477 55.7166 16.146 56.2583 16.7427C56.8042 17.3394 57.0771 18.1667 57.0771 19.2246C57.0771 20.2614 56.783 21.0929 56.1948 21.7192C55.6108 22.3413 54.8258 22.6523 53.8398 22.6523ZM53.916 16.7236C53.2474 16.7236 52.7184 16.9521 52.3291 17.4092C51.9398 17.862 51.7451 18.4883 51.7451 19.2881C51.7451 20.0583 51.9419 20.6655 52.3354 21.1099C52.729 21.5542 53.2559 21.7764 53.916 21.7764C54.5889 21.7764 55.1051 21.5584 55.4648 21.1226C55.8288 20.6867 56.0107 20.0667 56.0107 19.2627C56.0107 18.4502 55.8288 17.8239 55.4648 17.3838C55.1051 16.9437 54.5889 16.7236 53.916 16.7236ZM64.1357 22.5H62.6758L59.8066 19.377H59.7812V22.5H58.7402V12.877H59.7812V18.9771H59.8066L62.5361 16H63.9009L60.8857 19.1357L64.1357 22.5ZM74.4316 22.5H73.3906V18.7676C73.3906 18.0482 73.2785 17.5277 73.0542 17.2061C72.8341 16.8844 72.4618 16.7236 71.937 16.7236C71.4927 16.7236 71.1139 16.9268 70.8008 17.333C70.4919 17.7393 70.3374 18.2259 70.3374 18.793V22.5H69.2964V18.6406C69.2964 17.3626 68.8034 16.7236 67.8174 16.7236C67.3604 16.7236 66.9837 16.9162 66.6875 17.3013C66.3913 17.6821 66.2432 18.1794 66.2432 18.793V22.5H65.2021V16H66.2432V17.0283H66.2686C66.7298 16.2412 67.4027 15.8477 68.2871 15.8477C68.7314 15.8477 69.1187 15.9725 69.4487 16.2222C69.7788 16.4676 70.0052 16.7913 70.1279 17.1934C70.6104 16.2962 71.3298 15.8477 72.2861 15.8477C73.7165 15.8477 74.4316 16.73 74.4316 18.4946V22.5ZM81.0522 22.5H80.0112V21.4844H79.9858C79.533 22.263 78.8665 22.6523 77.9863 22.6523C77.3389 22.6523 76.8311 22.481 76.4629 22.1382C76.099 21.7954 75.917 21.3405 75.917 20.7734C75.917 19.5589 76.6322 18.8522 78.0625 18.6533L80.0112 18.3804C80.0112 17.2759 79.5648 16.7236 78.6719 16.7236C77.889 16.7236 77.1823 16.9902 76.5518 17.5234V16.457C77.1908 16.0508 77.9271 15.8477 78.7607 15.8477C80.2884 15.8477 81.0522 16.6559 81.0522 18.2725V22.5ZM80.0112 19.2119L78.4434 19.4277C77.9609 19.4954 77.597 19.616 77.3516 19.7896C77.1061 19.9588 76.9834 20.2614 76.9834 20.6973C76.9834 21.0146 77.0955 21.2749 77.3198 21.478C77.5483 21.6769 77.8509 21.7764 78.2275 21.7764C78.7438 21.7764 79.1691 21.5965 79.5034 21.2368C79.842 20.8729 80.0112 20.4137 80.0112 19.8594V19.2119ZM86.4033 17.0537C86.2214 16.9141 85.959 16.8442 85.6162 16.8442C85.1719 16.8442 84.7995 17.0537 84.499 17.4727C84.2028 17.8916 84.0547 18.4629 84.0547 19.1865V22.5H83.0137V16H84.0547V17.3394H84.0801C84.2282 16.8823 84.4546 16.5269 84.7593 16.2729C85.064 16.0148 85.4046 15.8857 85.7812 15.8857C86.0521 15.8857 86.2594 15.9154 86.4033 15.9746V17.0537ZM92.9287 22.5H91.4688L88.5996 19.377H88.5742V22.5H87.5332V12.877H88.5742V18.9771H88.5996L91.3291 16H92.6938L89.6787 19.1357L92.9287 22.5ZM93.6016 22.2651V21.1479C94.1686 21.5669 94.7928 21.7764 95.4741 21.7764C96.3882 21.7764 96.8452 21.4717 96.8452 20.8623C96.8452 20.6888 96.805 20.5428 96.7246 20.4243C96.6484 20.3016 96.5426 20.1937 96.4072 20.1006C96.276 20.0075 96.1195 19.925 95.9375 19.853C95.7598 19.7769 95.5672 19.6986 95.3599 19.6182C95.0721 19.5039 94.8182 19.3896 94.5981 19.2754C94.3823 19.1569 94.2004 19.0257 94.0522 18.8818C93.9084 18.7337 93.7983 18.5666 93.7222 18.3804C93.6502 18.1942 93.6143 17.9762 93.6143 17.7266C93.6143 17.4219 93.6841 17.1532 93.8237 16.9204C93.9634 16.6834 94.1496 16.4867 94.3823 16.3301C94.6151 16.1693 94.8796 16.0487 95.1758 15.9683C95.4762 15.8879 95.7852 15.8477 96.1025 15.8477C96.6654 15.8477 97.1689 15.945 97.6133 16.1396V17.1934C97.1351 16.8802 96.585 16.7236 95.9629 16.7236C95.7682 16.7236 95.5926 16.7469 95.436 16.7935C95.2795 16.8358 95.144 16.8971 95.0298 16.9775C94.9198 17.0579 94.833 17.1553 94.7695 17.2695C94.7103 17.3796 94.6807 17.5023 94.6807 17.6377C94.6807 17.807 94.7103 17.9487 94.7695 18.063C94.833 18.1772 94.924 18.2788 95.0425 18.3677C95.161 18.4565 95.3049 18.5369 95.4741 18.6089C95.6434 18.6808 95.8359 18.7591 96.0518 18.8438C96.3395 18.9538 96.5977 19.068 96.8262 19.1865C97.0547 19.3008 97.2493 19.432 97.4102 19.5801C97.571 19.724 97.6937 19.8911 97.7783 20.0815C97.8672 20.272 97.9116 20.4984 97.9116 20.7607C97.9116 21.0824 97.8397 21.3617 97.6958 21.5986C97.5562 21.8356 97.3678 22.0324 97.1309 22.189C96.8939 22.3455 96.6209 22.4619 96.312 22.5381C96.0031 22.6143 95.6794 22.6523 95.3408 22.6523C94.6722 22.6523 94.0924 22.5233 93.6016 22.2651Z" fill="#25052C"/>
</g>
</g>
<path d="M197 0.5C206.113 0.5 213.5 7.8873 213.5 17C213.5 26.1127 206.113 33.5 197 33.5H17C7.8873 33.5 0.5 26.1127 0.5 17C0.5 7.8873 7.8873 0.5 17 0.5H197Z" stroke="url(#paint1_linear_386_58171)"/>
<defs>
<linearGradient id="paint0_linear_386_58171" x1="213" y1="17" x2="1" y2="17" gradientUnits="userSpaceOnUse">
<stop offset="0.0432692" stop-opacity="0"/>
<stop offset="0.225962"/>
</linearGradient>
<linearGradient id="paint1_linear_386_58171" x1="47.9924" y1="2.72662" x2="183.657" y2="89.9441" gradientUnits="userSpaceOnUse">
<stop stop-color="#945AF2"/>
<stop offset="0.711538" stop-color="#F37E49"/>
</linearGradient>
<clipPath id="clip0_386_58171">
<path d="M1 17C1 8.16344 8.16344 1 17 1H197C205.837 1 213 8.16344 213 17V17C213 25.8366 205.837 33 197 33H17C8.16344 33 1 25.8366 1 17V17Z" fill="white"/>
</clipPath>
</defs>
</svg>
