<svg width="47" height="20" viewBox="0 0 47 20" fill="none" xmlns="http://www.w3.org/2000/svg">
<g clip-path="url(#clip0_386_58286)">
<path d="M11 15C8.243 15 6 12.757 6 10C6 7.243 8.243 5 11 5C13.757 5 16 7.243 16 10C16 12.757 13.757 15 11 15Z" fill="#45A52C"/>
</g>
<path d="M34.3638 13.5V6.5H35.5863L39.1906 11.4771L38.167 10.9581H38.8947V6.5H40.2966V13.5H39.0839L35.4699 8.50346L36.4983 9.02252H35.7658V13.5H34.3638Z" fill="#271732"/>
<path d="M28.402 11.2928V10.148H30.1969C30.6173 10.148 30.9439 10.0412 31.1768 9.82779C31.4129 9.61111 31.5309 9.30388 31.5309 8.9061V8.8964C31.5309 8.49861 31.4129 8.193 31.1768 7.97956C30.9439 7.76611 30.6173 7.65939 30.1969 7.65939H28.402V6.5H30.5559C31.0474 6.5 31.4775 6.60025 31.8462 6.80076C32.2149 6.99804 32.5011 7.27616 32.7048 7.63514C32.9118 7.99411 33.0153 8.41291 33.0153 8.89155V8.90125C33.0153 9.38311 32.9118 9.80353 32.7048 10.1625C32.5011 10.5215 32.2149 10.7996 31.8462 10.9969C31.4775 11.1942 31.0474 11.2928 30.5559 11.2928H28.402ZM27.6695 13.5V6.5H29.1345V13.5H27.6695Z" fill="#271732"/>
<path d="M22.3333 13.5L20 6.5H21.6445L23.192 11.8701H23.2793L24.8219 6.5H26.4712L24.1379 13.5H22.3333Z" fill="#271732"/>
<defs>
<clipPath id="clip0_386_58286">
<rect width="10" height="10" fill="white" transform="translate(6 5)"/>
</clipPath>
</defs>
</svg>
