<svg width="38" height="38" viewBox="0 0 38 38" fill="none" xmlns="http://www.w3.org/2000/svg">
<rect x="0.5" y="0.5" width="37" height="37" rx="18.5" fill="#FAF6FF"/>
<rect x="0.5" y="0.5" width="37" height="37" rx="18.5" stroke="#7C3AED"/>
<path d="M18.9994 12.9987C19.3675 12.9987 19.6659 13.2973 19.666 13.6654V17.6667C19.666 17.9809 19.666 18.1381 19.7637 18.2357C19.8613 18.3333 20.0184 18.3333 20.3327 18.3333H24.3333C24.7015 18.3333 25 18.6318 25 19C25 19.3682 24.7015 19.6667 24.3333 19.6667H20.3327C20.0184 19.6667 19.8613 19.6667 19.7637 19.7643C19.666 19.8619 19.666 20.0191 19.666 20.3333V24.3333C19.666 24.7015 19.3675 25 18.9994 25C18.6312 25 18.3327 24.7015 18.3327 24.3333V20.3333C18.3327 20.0191 18.3327 19.8619 18.2351 19.7643C18.1374 19.6667 17.9803 19.6667 17.666 19.6667H13.6654C13.2973 19.6666 12.9987 19.3681 12.9987 19C12.9987 18.6319 13.2973 18.3334 13.6654 18.3333H17.666C17.9803 18.3333 18.1374 18.3333 18.2351 18.2357C18.3327 18.1381 18.3327 17.9809 18.3327 17.6667V13.6654C18.3328 13.2973 18.6313 12.9987 18.9994 12.9987Z" fill="#271732"/>
</svg>
