<svg width="46" height="32" viewBox="0 0 46 32" fill="none" xmlns="http://www.w3.org/2000/svg">
<path d="M23 16.708L18.8545 20.8535C18.7568 20.9512 18.6396 21 18.5029 21C18.3597 21 18.2393 20.9528 18.1416 20.8584C18.0472 20.7607 18 20.6403 18 20.4971C18 20.3604 18.0488 20.2432 18.1465 20.1455L22.292 16L18.1465 11.8545C18.0488 11.7568 18 11.638 18 11.498C18 11.4297 18.013 11.3646 18.0391 11.3027C18.0651 11.2409 18.1009 11.1888 18.1465 11.1465C18.1921 11.1009 18.2458 11.0651 18.3076 11.0391C18.3695 11.013 18.4346 11 18.5029 11C18.6396 11 18.7568 11.0488 18.8545 11.1465L23 15.292L27.1455 11.1465C27.2432 11.0488 27.362 11 27.502 11C27.5703 11 27.6338 11.013 27.6924 11.0391C27.7542 11.0651 27.8079 11.1009 27.8535 11.1465C27.8991 11.1921 27.9349 11.2458 27.9609 11.3076C27.987 11.3662 28 11.4297 28 11.498C28 11.638 27.9512 11.7568 27.8535 11.8545L23.708 16L27.8535 20.1455C27.9512 20.2432 28 20.3604 28 20.4971C28 20.5654 27.987 20.6305 27.9609 20.6924C27.9349 20.7542 27.8991 20.8079 27.8535 20.8535C27.8112 20.8991 27.7591 20.9349 27.6973 20.9609C27.6354 20.987 27.5703 21 27.502 21C27.362 21 27.2432 20.9512 27.1455 20.8535L23 16.708Z" fill="#271732"/>
</svg>
