<svg width="46" height="32" viewBox="0 0 46 32" fill="none" xmlns="http://www.w3.org/2000/svg">
<path d="M18.498 16C18.4297 16 18.3646 15.987 18.3027 15.9609C18.2441 15.9349 18.1921 15.8991 18.1465 15.8535C18.1009 15.8079 18.0651 15.7559 18.0391 15.6973C18.013 15.6354 18 15.5703 18 15.502C18 15.4336 18.013 15.3701 18.0391 15.3115C18.0651 15.2497 18.1009 15.196 18.1465 15.1504C18.1921 15.1016 18.2441 15.0641 18.3027 15.0381C18.3646 15.012 18.4297 14.999 18.498 14.999H27.502C27.5703 14.999 27.6338 15.012 27.6924 15.0381C27.7542 15.0641 27.8079 15.1016 27.8535 15.1504C27.8991 15.196 27.9349 15.2497 27.9609 15.3115C27.987 15.3701 28 15.4336 28 15.502C28 15.5703 27.987 15.6354 27.9609 15.6973C27.9349 15.7559 27.8991 15.8079 27.8535 15.8535C27.8079 15.8991 27.7542 15.9349 27.6924 15.9609C27.6338 15.987 27.5703 16 27.502 16H18.498Z" fill="#271732"/>
</svg>
