<svg width="46" height="32" viewBox="0 0 46 32" fill="none" xmlns="http://www.w3.org/2000/svg">
<path d="M19.4746 21C19.2793 21 19.0921 20.9609 18.9131 20.8828C18.734 20.8014 18.5762 20.694 18.4395 20.5605C18.306 20.4238 18.1986 20.266 18.1172 20.0869C18.0391 19.9079 18 19.7207 18 19.5254V12.4746C18 12.2793 18.0391 12.0921 18.1172 11.9131C18.1986 11.734 18.306 11.5778 18.4395 11.4443C18.5762 11.3076 18.734 11.2002 18.9131 11.1221C19.0921 11.0407 19.2793 11 19.4746 11H26.5254C26.7207 11 26.9079 11.0407 27.0869 11.1221C27.266 11.2002 27.4222 11.3076 27.5557 11.4443C27.6924 11.5778 27.7998 11.734 27.8779 11.9131C27.9593 12.0921 28 12.2793 28 12.4746V19.5254C28 19.7207 27.9593 19.9079 27.8779 20.0869C27.7998 20.266 27.6924 20.4238 27.5557 20.5605C27.4222 20.694 27.266 20.8014 27.0869 20.8828C26.9079 20.9609 26.7207 21 26.5254 21H19.4746ZM26.501 19.999C26.5693 19.999 26.6328 19.986 26.6914 19.96C26.7533 19.9339 26.807 19.8981 26.8525 19.8525C26.8981 19.807 26.9339 19.7549 26.96 19.6963C26.986 19.6344 26.999 19.5693 26.999 19.501V12.499C26.999 12.4307 26.986 12.3672 26.96 12.3086C26.9339 12.2467 26.8981 12.193 26.8525 12.1475C26.807 12.1019 26.7533 12.0661 26.6914 12.04C26.6328 12.014 26.5693 12.001 26.501 12.001H19.499C19.4307 12.001 19.3656 12.014 19.3037 12.04C19.2451 12.0661 19.193 12.1019 19.1475 12.1475C19.1019 12.193 19.0661 12.2467 19.04 12.3086C19.014 12.3672 19.001 12.4307 19.001 12.499V19.501C19.001 19.5693 19.014 19.6344 19.04 19.6963C19.0661 19.7549 19.1019 19.807 19.1475 19.8525C19.193 19.8981 19.2451 19.9339 19.3037 19.96C19.3656 19.986 19.4307 19.999 19.499 19.999H26.501Z" fill="#271732"/>
</svg>
